<svg xmlns="http://www.w3.org/2000/svg" xmlns:xlink="http://www.w3.org/1999/xlink" width="940" zoomAndPan="magnify" viewBox="0 0 705 591.000005" height="788" preserveAspectRatio="xMidYMid meet" version="1.0"><path stroke-linecap="round" transform="matrix(2.569416, 0, 0, 2.567181, -193.654104, -250.031525)" fill="none" stroke-linejoin="round" d="M 102.790346 199.819571 C 117.020234 186.079425 132.849465 174.180428 148.199805 161.700175 C 152.99023 157.809416 152.629922 158.819766 154.820656 159.830115 C 139.669473 173.329847 120.019761 187.030432 105.009965 200.510383 Z M 102.790346 199.819571 " stroke="#365fa0" stroke-width="0.808" stroke-opacity="1" stroke-miterlimit="10"/><path stroke-linecap="round" transform="matrix(2.569416, 0, 0, 2.567181, -193.654104, -250.031525)" fill="none" stroke-linejoin="round" d="M 154.329603 160.980453 C 155.36948 162.080578 156.859361 162.610099 158.300593 163.089406 C 163.290176 164.749484 168.679594 166.280224 173.740631 164.830129 " stroke="#365fa0" stroke-width="0.808" stroke-opacity="1" stroke-miterlimit="10"/><path stroke-linecap="round" transform="matrix(2.569416, 0, 0, 2.567181, -193.654104, -250.031525)" fill="none" stroke-linejoin="round" d="M 113.92949 199.469601 C 127.519338 187.520391 141.410202 175.910499 155.570158 164.639928 " stroke="#365fa0" stroke-width="0.808" stroke-opacity="1" stroke-miterlimit="10"/><path stroke-linecap="round" transform="matrix(2.569416, 0, 0, 2.567181, -193.654104, -250.031525)" fill="none" stroke-linejoin="round" d="M 116.279854 198.240139 C 130.710421 188.920273 143.789452 177.990542 157.060039 167.089721 " stroke="#365fa0" stroke-width="0.808" stroke-opacity="1" stroke-miterlimit="10"/><path stroke-linecap="round" transform="matrix(2.569416, 0, 0, 2.567181, -193.654104, -250.031525)" fill="none" stroke-linejoin="round" d="M 170.660529 165.740052 C 157.809541 175.160345 145.340145 185.110159 133.279706 195.53015 " stroke="#365fa0" stroke-width="0.808" stroke-opacity="1" stroke-miterlimit="10"/><path fill="#d7c8b5" d="M 68.117188 262.761719 C 69.839844 360.1875 67.578125 460.128906 61.359375 557.398438 C 61.207031 559.785156 61.101562 562.351562 62.441406 564.378906 C 63.390625 565.820312 64.957031 566.742188 66.5 567.5625 C 79.964844 574.777344 112.671875 575.265625 127.882812 573.417969 C 131.839844 572.929688 136 572.03125 138.90625 569.359375 C 143.324219 565.304688 143.53125 558.628906 143.375 552.726562 C 141.089844 455.300781 142.503906 358.210938 145.6875 260.734375 C 129.707031 274.238281 86.695312 274.90625 70.199219 262.019531 Z M 68.117188 262.761719 " fill-opacity="1" fill-rule="nonzero"/><path fill="#fdd28a" d="M 145.714844 260.734375 C 181.070312 229.980469 223.722656 194.449219 261.75 167.058594 C 265.859375 279.550781 260.078125 377.207031 265.707031 483.71875 C 234.925781 503.589844 176.957031 551.570312 139.085938 569.359375 " fill-opacity="1" fill-rule="nonzero"/><path stroke-linecap="round" transform="matrix(2.569416, 0, 0, 2.567181, -193.654104, -250.031525)" fill="none" stroke-linejoin="round" d="M 141.039252 212.73044 C 150.44983 205.729508 159.860408 198.740749 169.260344 191.739818 C 168.849867 196.050541 168.539728 200.370395 168.349692 204.699378 C 158.519515 211.230132 149.119579 218.410613 140.239581 226.19974 C 140.329278 222.949579 140.350562 219.699418 140.440259 216.459908 Z M 141.039252 212.73044 " stroke="#365fa0" stroke-width="0.808" stroke-opacity="1" stroke-miterlimit="10"/><path stroke-linecap="round" transform="matrix(2.569416, 0, 0, 2.567181, -193.654104, -250.031525)" fill="none" stroke-linejoin="round" d="M 103.86975 210.070664 C 111.950076 213.929469 121.789375 213.889907 129.839296 209.950457 " stroke="#365fa0" stroke-width="0.808" stroke-opacity="1" stroke-miterlimit="10"/><path stroke-linecap="round" transform="matrix(2.569416, 0, 0, 2.567181, -193.654104, -250.031525)" fill="none" stroke-linejoin="round" d="M 102.810109 218.119986 C 111.860379 221.359495 121.219268 221.470573 130.339471 218.439524 " stroke="#365fa0" stroke-width="0.808" stroke-opacity="1" stroke-miterlimit="10"/><path stroke-linecap="round" transform="matrix(2.569416, 0, 0, 2.567181, -193.654104, -250.031525)" fill="none" stroke-linejoin="round" d="M 100.949278 302.930012 C 103.719241 304.209687 106.860155 304.340545 109.909851 304.450101 C 117.269561 304.710297 124.170145 305.209385 130.990154 302.420272 " stroke="#365fa0" stroke-width="0.808" stroke-opacity="1" stroke-miterlimit="10"/><path stroke-linecap="round" transform="matrix(2.569416, 0, 0, 2.567181, -193.654104, -250.031525)" fill="none" stroke-linejoin="round" d="M 100.630018 308.820168 C 110.01019 311.560589 120.159627 311.5895 129.559563 308.920594 " stroke="#365fa0" stroke-width="0.808" stroke-opacity="1" stroke-miterlimit="10"/><path stroke-linecap="round" transform="matrix(2.569416, 0, 0, 2.567181, -193.654104, -250.031525)" fill="none" stroke-linejoin="round" d="M 111.550241 230.11028 C 108.249697 231.869262 107.410499 236.050648 107.699353 239.670561 C 107.989728 243.41068 110.499722 247.129497 114.160574 247.969427 C 116.810435 248.579593 119.680737 247.590545 121.640387 245.700705 C 123.589395 243.809342 124.67032 241.129786 124.899883 238.430448 C 125.430463 232.159889 118.619576 227.770042 112.699578 229.62945 C 112.279979 229.769439 111.899907 229.930729 111.550241 230.11028 Z M 111.550241 230.11028 " stroke="#365fa0" stroke-width="0.808" stroke-opacity="1" stroke-miterlimit="10"/><path stroke-linecap="round" transform="matrix(2.569416, 0, 0, 2.567181, -193.654104, -250.031525)" fill="none" stroke-linejoin="round" d="M 155.279783 157.559872 C 174.760743 138.749718 196.450681 122.450222 217.459531 105.359489 C 224.01957 100.029286 223.530038 101.409387 226.520443 102.800139 C 205.770042 121.290755 177.310265 141.050394 156.760543 159.499926 Z M 155.279783 157.559872 " stroke="#365fa0" stroke-width="1.107" stroke-opacity="1" stroke-miterlimit="10"/><path stroke-linecap="round" transform="matrix(2.569416, 0, 0, 2.567181, -193.654104, -250.031525)" fill="none" stroke-linejoin="round" d="M 225.860638 104.35979 C 227.280586 105.87075 229.329933 106.599602 231.300226 107.249329 C 238.139998 109.519573 245.519472 111.610266 252.43982 109.63065 " stroke="#365fa0" stroke-width="1.107" stroke-opacity="1" stroke-miterlimit="10"/><path stroke-linecap="round" transform="matrix(2.569416, 0, 0, 2.567181, -193.654104, -250.031525)" fill="none" stroke-linejoin="round" d="M 170.540426 157.069913 C 189.150262 140.709553 208.170576 124.799589 227.569441 109.379585 " stroke="#365fa0" stroke-width="1.107" stroke-opacity="1" stroke-miterlimit="10"/><path stroke-linecap="round" transform="matrix(2.569416, 0, 0, 2.567181, -193.654104, -250.031525)" fill="none" stroke-linejoin="round" d="M 173.760394 155.379404 C 193.519568 142.620696 211.430071 127.649567 229.609666 112.719521 " stroke="#365fa0" stroke-width="1.107" stroke-opacity="1" stroke-miterlimit="10"/><path stroke-linecap="round" transform="matrix(2.569416, 0, 0, 2.567181, -193.654104, -250.031525)" fill="none" stroke-linejoin="round" d="M 248.219502 110.879893 C 230.620657 123.78924 213.54023 137.400049 197.029911 151.680368 " stroke="#365fa0" stroke-width="1.107" stroke-opacity="1" stroke-miterlimit="10"/><path fill="#ef7e6b" d="M 202.140625 154.195312 C 204.503906 287.640625 201.394531 424.496094 192.863281 557.679688 C 192.65625 560.941406 192.503906 564.484375 194.328125 567.230469 C 195.636719 569.207031 197.796875 570.464844 199.902344 571.59375 C 218.324219 581.453125 263.109375 582.144531 283.972656 579.605469 C 289.394531 578.9375 295.101562 577.703125 299.082031 574.035156 C 305.148438 568.488281 305.402344 559.347656 305.199219 551.238281 C 302.0625 417.792969 303.992188 284.839844 308.359375 151.398438 C 286.492188 169.90625 227.574219 170.804688 204.992188 153.144531 Z M 202.140625 154.195312 " fill-opacity="1" fill-rule="nonzero"/><path fill="#fdd28a" d="M 308.382812 151.398438 C 356.792969 109.269531 415.21875 60.648438 467.277344 23.117188 C 472.902344 177.171875 464.988281 310.921875 472.671875 456.765625 C 430.507812 483.976562 351.140625 549.695312 299.289062 574.035156 " fill-opacity="1" fill-rule="nonzero"/><path stroke-linecap="round" transform="matrix(2.569416, 0, 0, 2.567181, -193.654104, -250.031525)" fill="none" stroke-linejoin="round" d="M 207.659759 175.239469 C 220.539633 165.659407 233.430148 156.079345 246.310021 146.499282 C 245.739914 152.400089 245.329436 158.320677 245.069467 164.250395 C 231.599722 173.189859 218.730491 183.030117 206.580355 193.690523 C 206.70958 189.239811 206.729343 184.790621 206.849446 180.35056 Z M 207.659759 175.239469 " stroke="#365fa0" stroke-width="1.107" stroke-opacity="1" stroke-miterlimit="10"/><path stroke-linecap="round" transform="matrix(2.569416, 0, 0, 2.567181, -193.654104, -250.031525)" fill="none" stroke-linejoin="round" d="M 215.55005 196.980246 C 223.790007 190.849675 232.029963 184.720627 240.26992 178.590056 C 239.909612 182.369738 239.640521 186.149419 239.470249 189.939752 C 230.850221 195.659487 222.619386 201.949827 214.850718 208.769687 C 214.929773 205.930361 214.940415 203.080384 215.030112 200.230406 Z M 215.55005 196.980246 " stroke="#365fa0" stroke-width="0.708" stroke-opacity="1" stroke-miterlimit="10"/><path stroke-linecap="round" transform="matrix(2.569416, 0, 0, 2.567181, -193.654104, -250.031525)" fill="none" stroke-linejoin="round" d="M 156.760543 171.579995 C 167.829754 176.870636 181.310141 176.809771 192.320061 171.420226 " stroke="#365fa0" stroke-width="1.107" stroke-opacity="1" stroke-miterlimit="10"/><path stroke-linecap="round" transform="matrix(2.569416, 0, 0, 2.567181, -193.654104, -250.031525)" fill="none" stroke-linejoin="round" d="M 155.310188 182.619282 C 167.700529 187.059342 180.530233 187.209982 193.019393 183.060549 " stroke="#365fa0" stroke-width="1.107" stroke-opacity="1" stroke-miterlimit="10"/><path stroke-linecap="round" transform="matrix(2.569416, 0, 0, 2.567181, -193.654104, -250.031525)" fill="none" stroke-linejoin="round" d="M 163.30994 197.899298 C 161.839822 233.299576 162.870577 270.289937 160.459401 301.250154 C 165.929395 301.840539 174.079655 301.980527 179.569412 301.449485 C 179.850665 267.249758 180.13952 233.050032 180.419252 198.850305 C 176.639818 199.080069 174.330502 199.11963 170.540426 199.11963 Z M 163.30994 197.899298 " stroke="#365fa0" stroke-width="1.107" stroke-opacity="1" stroke-miterlimit="10"/><path stroke-linecap="round" transform="matrix(2.569416, 0, 0, 2.567181, -193.654104, -250.031525)" fill-opacity="1" fill="#ffffff" fill-rule="nonzero" stroke-linejoin="round" d="M 293.980148 132.459379 C 288.730596 135.219581 281.120038 135.580203 275.230446 134.889391 C 273.529244 134.69006 266.499436 133.439296 265.099251 132.459379 C 263.320515 134.830048 260.839407 137.430482 258.659315 140.12069 C 246.320663 155.350493 233.960728 170.589426 222.630028 186.590686 C 221.989987 187.50061 221.380351 188.839627 222.190665 189.589781 C 222.520567 189.889539 222.979694 189.979314 223.420577 190.049308 C 226.520443 190.560569 229.650714 190.880107 232.790107 191.009444 C 236.309572 191.149433 239.880727 191.050528 243.299853 190.219728 C 245.829611 189.609562 248.239266 188.609864 250.6398 187.619295 C 251.570215 187.240414 252.489989 186.860011 253.420405 186.470479 C 253.960107 186.249845 254.510451 186.020082 255.010625 185.709674 C 255.769249 185.230366 256.400168 184.569987 257.009803 183.920259 C 268.64 171.499349 279.11934 157.999618 288.239543 143.629524 C 290.399872 140.250026 293.320343 136.420132 293.980148 132.459379 Z M 293.980148 132.459379 " stroke="#365fa0" stroke-width="0.911" stroke-opacity="1" stroke-miterlimit="10"/><path stroke-linecap="round" transform="matrix(2.569416, 0, 0, 2.567181, -193.654104, -250.031525)" fill-opacity="1" fill="#ffffff" fill-rule="nonzero" stroke-linejoin="round" d="M 216.98064 188.150337 C 229.530611 169.729716 244.870309 152.380309 258.940568 135.090244 C 263.329637 129.690047 263.170007 130.890598 265.819868 131.509894 C 252.190492 149.880302 234.009377 170.950048 220.530511 189.259592 Z M 216.98064 188.150337 " stroke="#365fa0" stroke-width="0.911" stroke-opacity="1" stroke-miterlimit="10"/><path stroke-linecap="round" transform="matrix(2.569416, 0, 0, 2.567181, -193.654104, -250.031525)" fill="none" stroke-linejoin="round" d="M 234.620533 185.219715 C 246.880129 168.909568 259.539561 152.909829 272.580585 137.229629 " stroke="#365fa0" stroke-width="0.911" stroke-opacity="1" stroke-miterlimit="10"/><path stroke-linecap="round" transform="matrix(2.569416, 0, 0, 2.567181, -193.654104, -250.031525)" fill="none" stroke-linejoin="round" d="M 289.96963 134.379652 C 277.950239 147.730266 265.970376 162.159702 255.059275 176.429369 " stroke="#365fa0" stroke-width="0.911" stroke-opacity="1" stroke-miterlimit="10"/><path fill="#98d4e1" d="M 361.261719 232.648438 C 385.542969 339.777344 405.996094 450.578125 421.464844 559.347656 C 421.847656 562.019531 422.3125 564.894531 424.238281 566.792969 C 425.625 568.15625 427.578125 568.820312 429.453125 569.386719 C 445.949219 574.238281 496.078125 568.027344 512.472656 562.480469 C 516.738281 561.042969 521.105469 559.09375 523.699219 555.472656 C 527.65625 549.980469 526.320312 542.585938 524.804688 536.089844 C 499.910156 429.089844 479.171875 321.628906 460.3125 213.34375 C 445.796875 231.90625 384.542969 241.816406 363.394531 231.339844 Z M 361.261719 232.648438 " fill-opacity="1" fill-rule="nonzero"/><path fill="#98d4e1" d="M 460.3125 213.320312 C 492.25 171.269531 531.179688 122.285156 566.867188 83.34375 C 597.238281 206.542969 613.296875 315.648438 643.949219 431.886719 C 614.53125 460.871094 561.601562 527.132812 523.882812 555.421875 " fill-opacity="1" fill-rule="nonzero"/><path stroke-linecap="round" transform="matrix(2.569416, 0, 0, 2.567181, -193.654104, -250.031525)" fill="none" stroke-linejoin="round" d="M 220.530511 198.94008 C 230.330282 201.350312 246.600396 199.320483 254.580384 193.13057 " stroke="#365fa0" stroke-width="0.911" stroke-opacity="1" stroke-miterlimit="10"/><path stroke-linecap="round" transform="matrix(2.569416, 0, 0, 2.567181, -193.654104, -250.031525)" fill="none" stroke-linejoin="round" d="M 221.210079 208.080397 C 231.940267 209.580705 247.719328 207.829331 257.090378 202.389572 " stroke="#365fa0" stroke-width="0.911" stroke-opacity="1" stroke-miterlimit="10"/><path stroke-linecap="round" transform="matrix(2.569416, 0, 0, 2.567181, -193.654104, -250.031525)" fill="none" stroke-linejoin="round" d="M 235.630004 219.329666 C 240.370259 248.100285 247.400067 277.739744 250.650442 303.089781 C 255.159613 302.650036 261.750059 301.390142 266.079837 300.049603 C 260.579437 272.439973 255.080559 244.830343 249.580159 217.220714 C 246.580633 218.03934 244.719801 218.459305 241.670105 219.089252 Z M 235.630004 219.329666 " stroke="#365fa0" stroke-width="0.911" stroke-opacity="1" stroke-miterlimit="10"/><path fill="#fdd28a" d="M 514.757812 186.105469 C 503.121094 192.5 496.746094 207.363281 495.589844 220.480469 C 494 238.324219 501.449219 261.53125 521.363281 264.84375 C 541.636719 268.207031 555.125 251.980469 559.597656 234.242188 C 561.496094 226.746094 562.5 218.863281 560.957031 211.289062 C 557.925781 196.402344 542.765625 182.511719 526.707031 182.921875 C 522.238281 183.027344 518.253906 184.179688 514.757812 186.105469 Z M 514.757812 186.105469 " fill-opacity="1" fill-rule="nonzero"/><path stroke-linecap="round" transform="matrix(2.569416, 0, 0, 2.567181, -193.654104, -250.031525)" fill="none" stroke-linejoin="round" d="M 275.870486 220.779762 C 284.800654 212.5798 293.239768 203.830538 301.110295 194.609576 C 301.580064 195.939464 303.190048 199.749577 304.079416 200.849702 C 296.990317 208.559704 286.749662 217.260276 278.43065 227.22987 C 277.970003 225.799556 277.500234 224.370763 277.039587 222.940449 Z M 275.870486 220.779762 " stroke="#365fa0" stroke-width="0.911" stroke-opacity="1" stroke-miterlimit="10"/><path stroke-linecap="round" transform="matrix(2.569416, 0, 0, 2.567181, -193.654104, -250.031525)" fill="none" stroke-linejoin="round" d="M 277.299556 135.409782 C 262.759529 152.41987 250.440642 168.279621 237.559248 186.580035 " stroke="#365fa0" stroke-width="0.911" stroke-opacity="1" stroke-miterlimit="10"/><path stroke-linecap="round" transform="matrix(2.569416, 0, 0, 2.567181, -193.654104, -250.031525)" fill="none" stroke-linejoin="round" d="M 250.740138 175.149694 C 260.450213 160.93937 270.850498 147.97068 282.620562 135.409782 " stroke="#365fa0" stroke-width="0.911" stroke-opacity="1" stroke-miterlimit="10"/><path stroke-linecap="round" transform="matrix(2.569416, 0, 0, 2.567181, -193.654104, -250.031525)" fill="none" stroke-linejoin="round" d="M 278.339433 303.470184 C 270.630056 264.010249 263.209534 224.489449 256.079387 184.919958 " stroke="#365fa0" stroke-width="0.911" stroke-opacity="1" stroke-miterlimit="10"/></svg>